<!-- icon666.com - MILLIONS vector ICONS FREE --><svg id="Layer_1" enable-background="new 0 0 256 256" viewBox="0 0 256 256" xmlns="http://www.w3.org/2000/svg"><g><path d="m153.791 51.044-6.432 62.55h-38.718l-6.432-62.55z" fill="#72c1e8"></path><path d="m139.237 107.095h-9.048c-1.381 0-2.5-1.119-2.5-2.5s1.119-2.5 2.5-2.5h6.792l2.918-28.38c.142-1.374 1.37-2.369 2.743-2.231 1.374.141 2.372 1.369 2.231 2.743l-3.149 30.624c-.131 1.274-1.205 2.244-2.487 2.244zm4.175-40.572c-.085 0-.172-.004-.259-.013-1.374-.141-2.372-1.369-2.231-2.743l.409-3.979c.142-1.374 1.374-2.37 2.743-2.231 1.374.141 2.372 1.369 2.231 2.743l-.409 3.979c-.133 1.286-1.219 2.244-2.484 2.244z" fill="#c5e5ff"></path><path d="m154.444 41.607h-52.887c-3.041 0-4.912 2.294-4.912 4.721 0 2.606 2.115 4.716 4.721 4.716h.844 51.581.844c2.644 0 4.721-2.148 4.721-4.716 0-2.415-1.857-4.721-4.912-4.721z" fill="#f2e1d6"></path><path d="m74.012 20.745-6.432 92.849h-45.202l-6.432-92.849z" fill="#72c1e8"></path><path d="m59.182 107.095h-15.247c-1.381 0-2.5-1.119-2.5-2.5s1.119-2.5 2.5-2.5h12.914l3.987-57.558c.096-1.377 1.288-2.405 2.667-2.321 1.377.096 2.417 1.29 2.321 2.667l-4.148 59.885c-.091 1.31-1.18 2.327-2.494 2.327zm4.841-69.861c-.058 0-.116-.002-.175-.006-1.377-.096-2.417-1.29-2.321-2.667l.346-4.988c.096-1.377 1.292-2.405 2.667-2.321 1.377.096 2.417 1.29 2.321 2.667l-.346 4.988c-.091 1.318-1.189 2.327-2.492 2.327z" fill="#c5e5ff"></path><path d="m74.665 11.308h-59.372c-3.041 0-4.912 2.294-4.912 4.721 0 2.606 2.115 4.716 4.721 4.716h.844 58.066.844c2.644 0 4.721-2.148 4.721-4.716 0-2.415-1.857-4.721-4.912-4.721z" fill="#f2e1d6"></path><path d="m240.051 76.654-4.86 36.94h-35.5l-4.86-36.94z" fill="#72c1e8"></path><path d="m227.298 107.095h-8.611c-1.381 0-2.5-1.119-2.5-2.5s1.119-2.5 2.5-2.5h6.418l.641-4.869c.18-1.368 1.426-2.335 2.805-2.152 1.369.18 2.333 1.436 2.152 2.805l-.926 7.042c-.164 1.244-1.224 2.174-2.479 2.174zm1.905-16.979c-1.369-.18-2.333-1.436-2.153-2.805l.261-1.983c.18-1.369 1.429-2.336 2.805-2.152 1.369.18 2.333 1.436 2.152 2.805l-.261 1.983c-.18 1.371-1.439 2.333-2.804 2.152z" fill="#c5e5ff"></path><path d="m240.707 67.214h-46.53c-3.041 0-4.912 2.294-4.912 4.721 0 2.606 2.115 4.716 4.721 4.716h.844 45.224.844c2.644 0 4.721-2.148 4.721-4.716 0-2.415-1.857-4.721-4.912-4.721z" fill="#f2e1d6"></path><g fill="#f0c020"><path d="m49.557 181.764h-11.243c-1.62 0-2.933 1.313-2.933 2.933v11.243c0 1.62 1.313 2.933 2.933 2.933h11.243c1.62 0 2.933-1.313 2.933-2.933v-11.243c0-1.619-1.313-2.933-2.933-2.933z"></path><path d="m231.618 189.918h-5.622v-13.374c0-1.62-1.313-2.933-2.933-2.933h-11.243c-1.62 0-2.933 1.313-2.933 2.933v13.374h-5.622c-1.62 0-2.933 1.313-2.933 2.933v11.243c0 1.62 1.313 2.933 2.933 2.933h11.243c1.62 0 2.933-1.313 2.933-2.933 0 1.62 1.313 2.933 2.933 2.933h11.243c1.62 0 2.933-1.313 2.933-2.933v-11.243c.001-1.62-1.312-2.933-2.932-2.933z"></path><path d="m142.176 181.764h-11.243c-1.62 0-2.933 1.313-2.933 2.933 0-1.62-1.313-2.933-2.933-2.933h-11.243c-1.62 0-2.933 1.313-2.933 2.933v11.243c0 1.62 1.313 2.933 2.933 2.933h11.243c1.62 0 2.933-1.313 2.933-2.933 0 1.62 1.313 2.933 2.933 2.933h11.243c1.62 0 2.933-1.313 2.933-2.933v-11.243c0-1.619-1.313-2.933-2.933-2.933z"></path></g><ellipse cx="43.935" cy="136.549" fill="#13bf6d" rx="12.448" ry="12.448" transform="matrix(.973 -.23 .23 .973 -30.197 13.747)"></ellipse><ellipse cx="127.481" cy="230.244" fill="#13bf6d" rx="12.448" ry="12.448" transform="matrix(.973 -.23 .23 .973 -49.489 35.448)"></ellipse><path d="m146.19 100.52c-.147 1.446.965 2.76 2.49 2.76 1.28 0 2.35-.96 2.48-2.24.14-1.37-.86-2.6-2.23-2.75-1.37-.14-2.6.87-2.74 2.23z"></path><path d="m152.19 91.09 3.874-37.689c3.299-.665 5.792-3.583 5.792-7.072 0-3.55-2.772-7.222-7.412-7.222h-52.887c-4.156 0-7.412 3.172-7.412 7.222 0 3.489 2.492 6.407 5.791 7.072l6.214 60.449c.13 1.28 1.2 2.24 2.49 2.24h38.72c1.29 0 2.35-.96 2.49-2.24l.29-2.87c.14-1.37-.86-2.6-2.23-2.74-1.36-.14-2.6.86-2.74 2.23l-.07.62h-34.2l-.76-7.391h9.389c1.381 0 2.5-1.119 2.5-2.5s-1.119-2.5-2.5-2.5h-9.904l-1.135-11.032h9.906c1.381 0 2.5-1.119 2.5-2.5s-1.119-2.5-2.5-2.5h-10.42l-1.134-11.028h10.421c1.381 0 2.5-1.119 2.5-2.5s-1.119-2.5-2.5-2.5h-10.936l-1.347-13.095h46.039l-3.81 37.036c-.14 1.37.86 2.6 2.23 2.74s2.611-.87 2.751-2.23zm-50.633-46.983h52.887c1.657 0 2.412 1.152 2.412 2.222 0 1.222-.997 2.215-2.221 2.215h-.807c-.013 0-.024-.004-.037-.004-.056 0-52.413.004-52.424.004-1.225 0-2.221-.994-2.221-2.215-.001-1.07.753-2.222 2.411-2.222z"></path><path d="m70.73 68.13c-1.38-.1-2.57.96-2.67 2.32-.087 1.462 1.034 2.67 2.5 2.67 1.31 0 2.4-1.02 2.49-2.32.099-1.335-.899-2.564-2.32-2.67z"></path><path d="m7.881 16.03c0 3.464 2.456 6.363 5.719 7.056l6.28 90.684c.09 1.3 1.19 2.32 2.5 2.32h45.2c1.31 0 2.4-1.02 2.49-2.32l2.29-33c.105-1.392-.985-2.579-2.32-2.66-1.39-.09-2.57.96-2.67 2.32l-2.12 30.66h-40.54l-.647-9.339h8.634c1.381 0 2.5-1.119 2.5-2.5s-1.119-2.5-2.5-2.5h-8.981l-.755-10.89h9.079c1.381 0 2.5-1.119 2.5-2.5s-1.119-2.5-2.5-2.5h-9.426l-.754-10.882h9.532c1.381 0 2.5-1.119 2.5-2.5s-1.119-2.5-2.5-2.5h-9.878l-.754-10.881h9.968c1.381 0 2.5-1.119 2.5-2.5s-1.119-2.5-2.5-2.5h-10.316l-.755-10.89h10.421c1.381 0 2.5-1.119 2.5-2.5s-1.119-2.5-2.5-2.5h-10.767l-.691-9.962h52.709l-2.579 37.234c-.087 1.435 1.001 2.581 2.32 2.66 1.39.1 2.58-.95 2.67-2.32l2.62-37.735c3.262-.694 5.718-3.592 5.718-7.055 0-3.55-2.772-7.221-7.412-7.221h-59.373c-4.156 0-7.412 3.171-7.412 7.221zm69.196 0c0 1.222-.997 2.215-2.222 2.215h-59.753c-1.225 0-2.221-.994-2.221-2.215 0-1.07.755-2.221 2.412-2.221h59.372c1.657 0 2.412 1.151 2.412 2.221z"></path><path d="m240.75 64.71-5.04.01c-1.38 0-2.5 1.12-2.5 2.49 0 1.38 1.12 2.5 2.5 2.5h5c1.45.04 2.33.85 2.41 2.23 0 1.21-1 2.21-2.22 2.21h-46.91c-1.23 0-2.22-1-2.23-2.21.08-1.38.96-2.19 2.42-2.23h21.53c1.37 0 2.5-1.12 2.5-2.5 0-1.37-1.13-2.49-2.5-2.49h-21.53l-.05-.01c-4.141 0-7.36 3.192-7.36 7.23 0 3.502 2.523 6.433 5.85 7.076l4.593 34.905c.164 1.244 1.224 2.174 2.479 2.174h35.5c1.255 0 2.315-.93 2.479-2.174l4.592-34.904c3.322-.641 5.849-3.573 5.858-7.076-.001-3.911-3.099-7.231-7.371-7.231zm-7.751 46.384h-31.115l-.99-7.525h8.991c1.381 0 2.5-1.119 2.5-2.5s-1.119-2.5-2.5-2.5h-9.649l-.988-7.513h9.503c1.381 0 2.5-1.119 2.5-2.5s-1.119-2.5-2.5-2.5h-10.161l-.908-6.902h39.519z"></path><path d="m228.21 67.21c0-1.37-1.12-2.49-2.5-2.49s-2.5 1.12-2.5 2.49c0 1.38 1.12 2.5 2.5 2.5s2.5-1.12 2.5-2.5z"></path><path d="m49.557 179.265h-11.244c-2.996 0-5.433 2.438-5.433 5.433v11.243c0 2.996 2.438 5.433 5.433 5.433h11.244c2.996 0 5.433-2.438 5.433-5.433v-11.243c0-2.996-2.437-5.433-5.433-5.433zm.433 16.676c0 .239-.194.433-.433.433h-11.244c-.239 0-.433-.194-.433-.433v-11.243c0-.239.194-.433.433-.433h11.244c.239 0 .433.194.433.433z"></path><path d="m197.833 192.851v11.244c0 2.996 2.438 5.433 5.433 5.433h11.243c1.081 0 2.086-.321 2.933-.867.847.546 1.853.867 2.933.867h11.244c2.996 0 5.433-2.438 5.433-5.433v-11.244c0-2.996-2.437-5.433-5.433-5.433h-3.122v-10.874c0-2.996-2.438-5.433-5.433-5.433h-11.244c-2.996 0-5.433 2.438-5.433 5.433v10.874h-3.122c-2.995 0-5.432 2.437-5.432 5.433zm34.218 0v11.244c0 .239-.194.433-.433.433h-11.244c-.239 0-.433-.194-.433-.433v-11.677h11.677c.239 0 .433.194.433.433zm-20.664-16.307c0-.239.194-.433.433-.433h11.243c.239 0 .433.194.433.433v10.874c-4.382 0-7.727 0-12.109 0zm-8.554 16.307c0-.239.194-.433.433-.433h11.676v11.677c0 .239-.194.433-.433.433h-11.243c-.239 0-.433-.194-.433-.433z"></path><path d="m108.391 184.698v11.243c0 2.996 2.438 5.433 5.433 5.433h11.243c1.081 0 2.086-.321 2.933-.867.847.546 1.853.867 2.933.867h11.243c2.996 0 5.433-2.438 5.433-5.433v-11.243c0-2.996-2.438-5.433-5.433-5.433h-11.243c-1.081 0-2.086.321-2.933.867-.847-.546-1.853-.867-2.933-.867h-11.243c-2.996 0-5.433 2.437-5.433 5.433zm22.542-.433h11.243c.239 0 .433.194.433.433v11.243c0 .239-.194.433-.433.433h-11.243c-.239 0-.433-.194-.433-.433v-11.243c0-.239.194-.433.433-.433zm-17.542.433c0-.239.194-.433.433-.433h11.243c.239 0 .433.194.433.433v11.243c0 .239-.194.433-.433.433h-11.243c-.239 0-.433-.194-.433-.433z"></path><path d="m128 153.497c8.242 0 14.948-6.706 14.948-14.948s-6.706-14.948-14.948-14.948-14.948 6.706-14.948 14.948 6.706 14.948 14.948 14.948zm0-24.896c5.485 0 9.948 4.462 9.948 9.948s-4.462 9.948-9.948 9.948-9.948-4.462-9.948-9.948 4.463-9.948 9.948-9.948z"></path><path d="m217.441 153.497c8.242 0 14.948-6.706 14.948-14.948s-6.706-14.948-14.948-14.948-14.948 6.706-14.948 14.948 6.706 14.948 14.948 14.948zm0-24.896c5.485 0 9.948 4.462 9.948 9.948s-4.462 9.948-9.948 9.948-9.948-4.462-9.948-9.948 4.463-9.948 9.948-9.948z"></path><path d="m58.883 230.244c0-8.242-6.706-14.948-14.948-14.948s-14.948 6.706-14.948 14.948 6.706 14.948 14.948 14.948 14.948-6.706 14.948-14.948zm-14.948 9.948c-5.485 0-9.948-4.462-9.948-9.948s4.462-9.948 9.948-9.948 9.948 4.462 9.948 9.948-4.463 9.948-9.948 9.948z"></path><path d="m232.389 232.244c0-8.242-6.706-14.948-14.948-14.948s-14.948 6.706-14.948 14.948 6.706 14.948 14.948 14.948 14.948-6.706 14.948-14.948zm-14.948 9.947c-5.485 0-9.948-4.462-9.948-9.948s4.462-9.948 9.948-9.948 9.948 4.462 9.948 9.948-4.462 9.948-9.948 9.948z"></path><path d="m61.029 120.862-5.86 5.859c-2.742-3.13-6.756-5.12-11.235-5.12-8.242 0-14.948 6.706-14.948 14.948s6.706 14.948 14.948 14.948c10.436 0 17.772-10.531 13.91-20.381l6.719-6.719c.977-.976.977-2.559 0-3.535-.974-.976-2.558-.976-3.534 0zm-17.094 25.635c-5.485 0-9.948-4.462-9.948-9.948s4.462-9.948 9.948-9.948c3.1 0 5.872 1.427 7.698 3.656l-6.198 6.198-3.333-3.333c-.977-.977-2.56-.976-3.536 0-.977.977-.977 2.56 0 3.536 4.509 4.51 6.401 7.339 8.637 5.102l6.576-6.576c.847 6.134-3.961 11.313-9.844 11.313z"></path><path d="m148.11 214.557c-.976-.977-2.56-.977-3.535 0l-5.859 5.859c-2.742-3.13-6.756-5.12-11.234-5.12-8.242 0-14.948 6.706-14.948 14.948s6.706 14.948 14.948 14.948c10.438 0 17.771-10.532 13.91-20.381l6.719-6.719c.976-.976.976-2.559-.001-3.535zm-20.629 25.635c-5.485 0-9.948-4.462-9.948-9.948s4.462-9.948 9.948-9.948c3.1 0 5.872 1.427 7.698 3.656l-6.198 6.198-3.334-3.333c-.976-.977-2.56-.977-3.535 0-.977.976-.977 2.559 0 3.535l5.102 5.102c.976.977 2.56.977 3.535 0l6.576-6.576c.847 6.137-3.962 11.314-9.844 11.314z"></path></g></svg>