<!-- icon666.com - MILLIONS vector ICONS FREE --><svg id="Layer_1" enable-background="new 0 0 256 256" viewBox="0 0 256 256" xmlns="http://www.w3.org/2000/svg"><g><g><g><path d="m232.054 141.861c-.09-.09-.181-.181-.271-.271-4.995-4.995-13.09-4.998-18.084-.002-10.622 10.626-27.725 27.729-35.009 35.014-2.228 2.228-5.236 3.466-8.387 3.466h-24.834c8.201-.043 14.838-6.701 14.838-14.912 0-8.238-6.678-14.916-14.916-14.916h-32.256c-8.029 0-15.715 3.25-21.309 9.01l-20.218 20.819h-7.613v49.668h82.959c9.454 0 18.52-3.755 25.206-10.439l59.893-59.883c4.847-4.849 4.848-12.707.001-17.554z" fill="#fcc4ae"></path></g><g><path d="m232.758 142.639c.209 3.425-.983 6.919-3.6 9.537l-59.893 59.883c-6.685 6.684-15.752 10.439-25.206 10.439h-80.065v7.236h82.959c9.454 0 18.52-3.755 25.206-10.439l59.893-59.883c4.598-4.596 4.828-11.896.706-16.773z" fill="#f2ad97"></path></g><g><path d="m145.39 180.071h-24.422c-1.199 0-2.171-.972-2.171-2.171 0-1.199.972-2.171 2.171-2.171h21.528c8.238 0 14.916-6.678 14.916-14.916 0-2.116-.447-4.125-1.241-5.949 2.556 2.677 4.135 6.296 4.135 10.291 0 8.238-6.678 14.916-14.916 14.916z" fill="#f2ad97"></path></g><g><path d="m140.353 174.568h3.025c4.418 0 8-3.582 8-8v-2.825c0-4.418-3.582-8-8-8h-3.025c-1.105 0-2 .895-2 2v14.825c0 1.104.896 2 2 2z" fill="#ffd2c0"></path></g><g><path d="m58.994 244.587h-33.683c-2.761 0-5-2.239-5-5v-69.372c0-2.761 2.239-5 5-5h33.683c2.761 0 5 2.239 5 5v69.372c0 2.761-2.238 5-5 5z" fill="#478cf7"></path></g><g><path d="m26.311 220.587c-1.104 0-2-.896-2-2v-39c0-1.104.896-2 2-2s2 .896 2 2v39c0 1.104-.895 2-2 2zm0-47c-1.104 0-2-.896-2-2v-.372c0-1.104.896-2 2-2s2 .896 2 2v.372c0 1.104-.895 2-2 2z" fill="#5e9cf7"></path></g><g><path d="m63.994 170.215c0-2.761-2.239-5-5-5h-15v54.372c0 2.761-2.239 5-5 5h-18.683v15c0 2.761 2.239 5 5 5h33.683c2.761 0 5-2.239 5-5z" fill="#377de2"></path></g><g><path d="m63.994 170.215c0-2.761-2.239-5-5-5h-5v64.372c0 2.761-2.239 5-5 5h-28.683v5c0 2.761 2.239 5 5 5h33.683c2.761 0 5-2.239 5-5z" fill="#2266d3"></path></g></g><g><circle cx="168" cy="78.913" fill="#f79219" r="67.5"></circle></g><g><path d="m187.717 14.347c16.834 12.274 27.783 32.137 27.783 54.566 0 37.279-30.221 67.5-67.5 67.5-6.86 0-13.479-1.031-19.717-2.934 11.146 8.127 24.867 12.934 39.717 12.934 37.279 0 67.5-30.221 67.5-67.5 0-30.418-20.124-56.13-47.783-64.566z" fill="#ef7816"></path></g><g><path d="m210.473 90.407-19.794-11.428 19.794-11.428c2.391-1.381 3.211-4.439 1.83-6.83l-6.343-10.987c-1.381-2.391-4.439-3.211-6.83-1.83l-19.794 11.428v-22.856c0-2.761-2.239-5-5-5h-12.686c-2.761 0-5 2.239-5 5v22.856l-19.794-11.428c-2.391-1.381-5.449-.561-6.83 1.83l-6.343 10.987c-1.381 2.391-.561 5.449 1.83 6.83l19.794 11.428-19.794 11.428c-2.391 1.381-3.211 4.439-1.83 6.83l6.343 10.987c1.381 2.391 4.439 3.211 6.83 1.83l19.794-11.428v22.856c0 2.761 2.239 5 5 5h12.686c2.761 0 5-2.239 5-5v-22.857l19.794 11.428c2.391 1.381 5.449.561 6.83-1.83l6.343-10.987c1.38-2.391.561-5.449-1.83-6.829z" fill="#fff"></path></g></g></svg>