<!-- icon666.com - MILLIONS vector ICONS FREE --><svg version="1.1" id="Layer_1" xmlns="http://www.w3.org/2000/svg" xmlns:xlink="http://www.w3.org/1999/xlink" x="0px" y="0px" viewBox="0 0 512 512" style="enable-background:new 0 0 512 512;" xml:space="preserve"><g><path style="fill:#2C3E50;" d="M443.316,500.526h-51.419c-9.22,0-16.695-7.475-16.695-16.695v-83.182 c0-9.22,7.475-16.695,16.695-16.695h51.419c9.22,0,16.695,7.475,16.695,16.695v83.182 C460.011,493.051,452.536,500.526,443.316,500.526z"></path><path style="fill:#2C3E50;" d="M443.316,325.336c-9.22,0-16.695-7.475-16.695-16.695v-62.176c0-9.22,7.475-16.695,16.695-16.695 s16.695,7.475,16.695,16.695v62.176C460.011,317.861,452.536,325.336,443.316,325.336z"></path></g><path style="fill:#36495E;" d="M68.684,325.336c-9.22,0-16.695-7.475-16.695-16.695v-62.176c0-9.22,7.475-16.695,16.695-16.695 c9.22,0,16.695,7.475,16.695,16.695v62.176C85.381,317.861,77.905,325.336,68.684,325.336z"></path><path style="fill:#FF1744;" d="M391.905,325.336h-271.8c-9.22,0-16.695-7.475-16.695-16.695V70.531 c0-32.563,26.492-59.056,59.056-59.056h187.081c32.563,0,59.056,26.492,59.056,59.056v238.11 C408.6,317.861,401.125,325.336,391.905,325.336z"></path><path style="fill:#D50000;" d="M349.544,11.474H256v313.862h135.905c9.22,0,16.695-7.475,16.695-16.695V70.531 C408.6,37.966,382.108,11.474,349.544,11.474z"></path><path style="fill:#FF5252;" d="M120.105,263.161H16.695C7.475,263.161,0,255.685,0,246.464v-64.3c0-9.22,7.475-16.695,16.695-16.695 h103.408c9.22,0,16.695,7.475,16.695,16.695v64.3C136.8,255.685,129.325,263.161,120.105,263.161z"></path><path style="fill:#36495E;" d="M120.105,500.526H68.685c-9.22,0-16.695-7.475-16.695-16.695v-83.182 c0-9.22,7.475-16.695,16.695-16.695h51.419c9.22,0,16.695,7.475,16.695,16.695v83.182 C136.8,493.051,129.325,500.526,120.105,500.526z"></path><path style="fill:#FF5252;" d="M443.324,417.344H68.684c-9.22,0-16.695-7.475-16.695-16.695v-92.007 c0-9.22,7.475-16.695,16.695-16.695h374.639c9.22,0,16.695,7.475,16.695,16.695v92.007 C460.019,409.868,452.544,417.344,443.324,417.344z"></path><g><path style="fill:#FF1744;" d="M495.305,263.161H391.896c-9.22,0-16.695-7.475-16.695-16.695v-64.3 c0-9.22,7.475-16.695,16.695-16.695h103.408c9.22,0,16.695,7.475,16.695,16.695v64.3C512,255.685,504.525,263.161,495.305,263.161z "></path><path style="fill:#FF1744;" d="M443.324,291.946H256v125.398h187.324c9.22,0,16.695-7.475,16.695-16.695v-92.007 C460.019,299.42,452.544,291.946,443.324,291.946z"></path></g></svg>