<!-- icon666.com - MILLIONS vector ICONS FREE --><svg viewBox="0 0 414 414" xmlns="http://www.w3.org/2000/svg"><path d="m414 207c0 114.324219-92.675781 207-207 207s-207-92.675781-207-207 92.675781-207 207-207 207 92.675781 207 207zm0 0" fill="#f0c48a"></path><path d="m328.109375 267.777344h-242.21875c-9.003906 0-16.304687-7.300782-16.304687-16.308594v-156.164062c0-9.003907 7.300781-16.304688 16.304687-16.304688h242.21875c9.007813 0 16.308594 7.300781 16.308594 16.304688v156.164062c-.003907 9.007812-7.304688 16.308594-16.308594 16.308594zm0 0" fill="#7babf1"></path><path d="m328.109375 273.777344h-242.21875c-12.300781 0-22.304687-10.007813-22.304687-22.308594v-156.164062c0-12.300782 10.003906-22.304688 22.304687-22.304688h242.21875c12.300781 0 22.308594 10.003906 22.308594 22.304688v156.164062c-.003907 12.300781-10.007813 22.308594-22.308594 22.308594zm-242.21875-188.777344c-5.683594 0-10.304687 4.621094-10.304687 10.304688v156.164062c0 5.683594 4.621093 10.308594 10.304687 10.308594h242.21875c5.683594 0 10.308594-4.625 10.308594-10.308594v-156.164062c0-5.683594-4.625-10.304688-10.308594-10.304688zm0 0" fill="#4c4372"></path><path d="m275.933594 355h-137.867188v-21.222656c0-7.914063 6.417969-14.332032 14.332032-14.332032h109.199218c7.917969 0 14.335938 6.417969 14.335938 14.332032zm0 0" fill="#fd919e"></path><path d="m261.601562 319.445312h-30.570312v35.554688h44.902344v-21.222656c0-7.914063-6.414063-14.332032-14.332032-14.332032zm0 0" fill="#e8677d"></path><path d="m182.96875 267.777344h48.0625v51.667968h-48.0625zm0 0" fill="#e8677d"></path><path d="m231.03125 325.445312h-48.0625c-3.316406 0-6-2.6875-6-6v-51.667968c0-3.316406 2.683594-6 6-6h48.0625c3.316406 0 6 2.683594 6 6v51.667968c0 3.3125-2.683594 6-6 6zm-42.0625-12h36.0625v-39.667968h-36.0625zm0 0" fill="#4c4372"></path><path d="m275.933594 361h-137.867188c-3.3125 0-6-2.683594-6-6v-21.222656c0-11.210938 9.121094-20.332032 20.332032-20.332032h109.203124c11.210938 0 20.332032 9.121094 20.332032 20.332032v21.222656c0 3.316406-2.6875 6-6 6zm-131.867188-12h125.867188v-15.222656c0-4.59375-3.738282-8.332032-8.332032-8.332032h-109.203124c-4.59375 0-8.332032 3.738282-8.332032 8.332032zm0 0" fill="#4c4372"></path><path d="m235.796875 238.597656h-57.59375c-6.734375 0-12.195313-5.457031-12.195313-12.195312v-57.59375c0-6.734375 5.460938-12.195313 12.195313-12.195313h57.59375c6.734375 0 12.195313 5.460938 12.195313 12.195313v57.597656c0 6.734375-5.460938 12.191406-12.195313 12.191406zm0 0" fill="#d3e6f8"></path><path d="m235.796875 156.613281h-16.957031c6.730468 0 12.191406 5.460938 12.191406 12.195313v57.597656c0 6.734375-5.460938 12.195312-12.191406 12.195312h16.957031c6.734375 0 12.195313-5.460937 12.195313-12.195312v-57.597656c0-6.734375-5.460938-12.195313-12.195313-12.195313zm0 0" fill="#a4cff2"></path><g fill="#4c4372"><path d="m235.796875 244.597656h-57.59375c-10.03125 0-18.195313-8.160156-18.195313-18.195312v-57.59375c0-10.03125 8.164063-18.195313 18.195313-18.195313h57.59375c10.03125 0 18.195313 8.164063 18.195313 18.195313v57.597656c0 10.03125-8.164063 18.191406-18.195313 18.191406zm-57.59375-81.984375c-3.417969 0-6.195313 2.78125-6.195313 6.195313v57.597656c0 3.414062 2.777344 6.195312 6.195313 6.195312h57.59375c3.417969 0 6.195313-2.78125 6.195313-6.195312v-57.597656c0-3.414063-2.777344-6.195313-6.195313-6.195313zm0 0"></path><path d="m229.386719 162.613281c-3.3125 0-6-2.683593-6-6v-23.515625c0-9.035156-7.351563-16.386718-16.386719-16.386718s-16.386719 7.351562-16.386719 16.386718v23.515625c0 3.316407-2.6875 6-6 6s-6-2.683593-6-6v-23.515625c0-15.652344 12.734375-28.386718 28.386719-28.386718s28.386719 12.734374 28.386719 28.386718v23.515625c0 3.316407-2.6875 6-6 6zm0 0"></path><path d="m216.816406 210.585938-3.355468-12.695313c1.925781-1.765625 3.144531-4.285156 3.167968-7.097656.042969-5.226563-4.246094-9.683594-9.46875-9.832031-5.519531-.15625-10.039062 4.269531-10.039062 9.75 0 3.273437 1.617187 6.160156 4.089844 7.929687l-3.207032 11.945313c-.382812 1.898437 1.070313 3.671874 3.007813 3.671874h12.796875c1.9375 0 3.390625-1.773437 3.007812-3.671874zm0 0"></path><path d="m320.015625 186.957031h-50.226563c-3.316406 0-6-2.6875-6-6s2.683594-6 6-6h50.226563c3.3125 0 6 2.6875 6 6s-2.6875 6-6 6zm0 0"></path><path d="m144.214844 186.957031h-50.230469c-3.3125 0-6-2.6875-6-6s2.6875-6 6-6h50.230469c3.3125 0 6 2.6875 6 6s-2.6875 6-6 6zm0 0"></path></g></svg>