<!-- icon666.com - MILLIONS vector ICONS FREE --><svg version="1.1" id="Layer_1" xmlns="http://www.w3.org/2000/svg" xmlns:xlink="http://www.w3.org/1999/xlink" x="0px" y="0px" viewBox="0 0 512 512" style="enable-background:new 0 0 512 512;" xml:space="preserve"><circle style="fill:#00E4ED;" cx="256" cy="256" r="256"></circle><path style="fill:#00D2DE;" d="M511.795,265.823L364.922,118.949L146.651,421.023l90.271,90.271 c6.299,0.464,12.662,0.707,19.08,0.707C394.093,512,506.628,402.653,511.795,265.823z"></path><path style="fill:#FF764C;" d="M352.684,426.667H159.318c-9.442,0-17.094-7.654-17.094-17.096V130.874 c-0.002-9.442,7.652-17.096,17.094-17.096h193.365c9.442,0,17.096,7.654,17.096,17.094v278.699 C369.778,419.013,362.124,426.667,352.684,426.667z"></path><path style="fill:#FF450C;" d="M352.684,113.778h-97.258v312.889h97.258c9.442,0,17.096-7.654,17.096-17.096V130.874 C369.778,121.432,362.124,113.778,352.684,113.778z"></path><rect x="157.737" y="129.293" style="fill:#FFFFFF;" width="196.525" height="284.444"></rect><rect x="255.431" y="129.293" style="fill:#E6F3FF;" width="98.832" height="284.444"></rect><rect x="208.593" y="113.778" style="fill:#FFCE9B;" width="94.815" height="31.604"></rect><rect x="255.431" y="113.778" style="fill:#FFB181;" width="47.981" height="31.604"></rect><path style="fill:#007699;" d="M281.286,284.875c-0.122,0-0.245-0.003-0.369-0.014c-2.086-0.148-3.879-1.539-4.539-3.524 l-20.589-61.771l-4.122,11.335c-0.743,2.045-2.686,3.405-4.86,3.405h-66.66c-2.857,0-5.172-2.315-5.172-5.172 s2.315-5.172,5.172-5.172h63.035l7.956-21.88c0.752-2.069,2.729-3.448,4.93-3.405c2.2,0.029,4.141,1.448,4.837,3.536l21.335,64.007 l19.701-39.4c0.876-1.752,2.667-2.858,4.625-2.858h25.285c2.857,0,5.172,2.315,5.172,5.172s-2.315,5.172-5.172,5.172h-22.088 l-23.855,47.709C285.029,283.777,283.233,284.875,281.286,284.875z"></path><path style="fill:#005E8B;" d="M331.852,223.965h-25.285c-1.958,0-3.749,1.107-4.625,2.858l-19.701,39.4l-21.335-64.007 c-0.696-2.088-2.636-3.506-4.837-3.536c-0.217-0.003-0.431,0.016-0.645,0.038v21.845l0.362-0.995l20.589,61.771 c0.662,1.984,2.453,3.375,4.539,3.522c0.124,0.009,0.247,0.014,0.369,0.014c1.946,0,3.744-1.098,4.624-2.858l23.855-47.709h22.09 c2.857,0,5.172-2.317,5.172-5.172C337.024,226.28,334.708,223.965,331.852,223.965z"></path><g><path style="fill:#B8C9D9;" d="M227.556,318.061h-48.7c-2.857,0-5.172-2.315-5.172-5.172s2.315-5.172,5.172-5.172h48.7 c2.857,0,5.172,2.315,5.172,5.172S230.412,318.061,227.556,318.061z"></path><path style="fill:#B8C9D9;" d="M264.189,346.505h-85.333c-2.857,0-5.172-2.315-5.172-5.172s2.315-5.172,5.172-5.172h85.333 c2.857,0,5.172,2.315,5.172,5.172S267.045,346.505,264.189,346.505z"></path></g><path style="fill:#99ACBC;" d="M264.189,336.162h-8.763v10.343h8.763c2.857,0,5.172-2.315,5.172-5.172 S267.045,336.162,264.189,336.162z"></path><path style="fill:#B8C9D9;" d="M199.111,374.949h-20.256c-2.857,0-5.172-2.315-5.172-5.172s2.315-5.172,5.172-5.172h20.256 c2.857,0,5.172,2.315,5.172,5.172S201.968,374.949,199.111,374.949z"></path></svg>