<!-- icon666.com - MILLIONS vector ICONS FREE --><svg version="1.1" id="Capa_1" xmlns="http://www.w3.org/2000/svg" xmlns:xlink="http://www.w3.org/1999/xlink" x="0px" y="0px" viewBox="0 0 512 512" style="enable-background:new 0 0 512 512;" xml:space="preserve"><path style="fill:#DB8128;" d="M331.433,301.173c-1.691-1.358-3.888-1.916-6.023-1.534c-13.747,2.469-28.313,4.251-42.398,5.975 c-8.489,1.038-17.268,2.111-25.517,3.298c-3.692,0.531-6.434,3.695-6.434,7.425c0,3.731,2.741,6.894,6.435,7.425 c14.701,2.112,25.21,4.275,33.072,6.804c9.126,2.936,11.43,5.033,12.001,5.829c-0.24,7.137-7.475,11.964-45.482,19.586 c-3.505,0.703-6.026,3.781-6.026,7.355c0,3.575,2.522,6.652,6.027,7.354l1.563,0.314c15.169,3.014,30.854,6.131,42.8,11.765 c2.04,0.962,4.008,2.029,5.847,3.174c1.209,0.751,2.582,1.131,3.962,1.131c1.117,0,2.238-0.25,3.275-0.753l0.209-0.098 c0.185-0.086,0.37-0.173,0.555-0.265c21.464-10.651,33.285-28.39,33.285-49.947C348.584,322.033,342.813,310.312,331.433,301.173z"></path><g><path style="fill:#F2CA5A;" d="M276.673,390.38c-5.409-1.358-11.191-2.557-16.634-3.651c-0.975-0.196-1.979-0.196-2.954,0 c-5.132,1.03-10.598,2.161-15.803,3.445c-3.389,0.835-5.752,3.896-5.705,7.384l0.554,41.14c0.034,2.592,1.405,4.983,3.626,6.322 c3.644,2.197,7.718,4.575,12.393,7.229c1.447,1.817,3.631,2.821,5.87,2.821c1.244,0,2.506-0.311,3.669-0.963 c6.429-3.614,11.827-6.749,16.505-9.587c2.21-1.341,3.575-3.727,3.609-6.312l0.545-40.452 C282.394,394.28,280.046,391.227,276.673,390.38z"></path><path style="fill:#F2CA5A;" d="M277.343,311.858c-5.211-1.02-11.002-1.983-17.704-2.947c-0.71-0.102-1.428-0.102-2.136,0.001 c-6.451,0.928-11.978,1.839-16.896,2.784c-3.57,0.686-6.134,3.833-6.085,7.467l0.55,40.828c0.046,3.441,2.427,6.409,5.776,7.199 c4.928,1.164,10.75,2.41,17.8,3.812v-0.001l0.006,0.001c0.491,0.097,0.982,0.144,1.464,0.144c1.559,0,3.046-0.489,4.277-1.346 c4.817-0.997,9.004-1.922,12.707-2.808c3.34-0.798,5.71-3.762,5.756-7.194l0.545-40.478 C283.452,315.696,280.901,312.553,277.343,311.858z"></path><path style="fill:#F2CA5A;" d="M276.022,478.18c-4.521-1.495-8.957-3.055-13.21-4.646c-1.929-1.227-4.393-1.559-6.692-0.684 l-0.004,0.001c-4.622,1.759-9.409,3.465-14.228,5.069c-3.1,1.032-5.175,3.952-5.131,7.218l0.067,5.019 c0.163,12.045,10.095,21.843,22.14,21.843c12.046,0,21.979-9.799,22.14-21.843l0.065-4.754 C281.212,482.131,279.13,479.207,276.022,478.18z"></path></g><g><path style="fill:#DB8128;" d="M259.577,278.473c-7.111-0.971-14.472-1.872-21.591-2.742c-24.594-3.008-50.025-6.119-67.598-12.405 c-10.536-3.769-14.743-7.414-16.418-9.809c-0.664-0.95-0.992-1.786-1.146-2.612c1.1-0.017,2.441,0.035,3.612,0.067 c8.602,0.238,23.008,0.637,40.901-7.246c20.916-9.217,31.007-18.499,31.757-29.214c0.382-5.462-1.714-13.554-13.872-21.089 c-11.176-6.927-24.958-9.918-38.804-8.426c-46.948,5.06-68.438,24.119-69.68,61.796c-0.498,15.102,4.514,28.24,14.894,39.051 c7.941,8.27,18.732,14.77,32.989,19.871c9.46,3.384,20.726,6.226,34.442,8.69c0.441,0.079,0.885,0.118,1.326,0.118 c1.694,0,3.355-0.575,4.697-1.652c5.385-4.325,12.693-7.99,21.723-10.896c13.305-4.281,29.086-6.768,42.769-8.635 c3.717-0.507,6.486-3.682,6.486-7.432C266.064,282.154,263.294,278.981,259.577,278.473z"></path><path style="fill:#DB8128;" d="M262.244,440.721c-14.124-7.951-23.583-13.797-29.768-18.398c-7.314-5.439-8.34-7.928-8.461-8.306 c-0.001-0.284-0.002-0.61-0.001-0.659c0.006-0.014,0.787-1.414,5.203-3.497c7.613-3.591,19.401-6.13,30.823-8.423 c3.504-0.703,6.024-3.781,6.024-7.353c0-3.574-2.52-6.65-6.023-7.355c-1.549-0.311-3.11-0.622-4.682-0.934 c-16.206-3.22-32.964-6.549-46.223-12.974c-2.314-1.121-5.044-0.979-7.231,0.38c-19.834,12.33-23.943,29.159-23.897,41.106 c0.083,21.326,14.672,40.419,43.362,56.748c1.147,0.653,2.428,0.982,3.711,0.982c1.107,0,2.218-0.245,3.246-0.738 c8.672-4.163,21.5-10.523,33.362-17.191c0.001-0.001,0.003-0.001,0.004-0.002l0.552-0.312c2.359-1.329,3.82-3.828,3.82-6.537 S264.603,442.05,262.244,440.721z"></path><path style="fill:#DB8128;" d="M302.726,461.293c-2.221-1.037-4.733-2.224-7.435-3.522c-2.216-1.064-4.817-0.974-6.956,0.243 c-6.272,3.57-13.376,7.057-21.117,10.366c-3.562,1.523-7.37,3.056-11.319,4.556c-2.911,1.106-4.837,3.898-4.837,7.012 c0,3.115,1.925,5.906,4.837,7.012c13.015,4.946,25.008,8.591,32.777,10.78c1.846,0.52,3.706,0.769,5.537,0.769 c7.953,0,15.344-4.697,18.44-12.294C316.548,476.656,312.188,465.709,302.726,461.293z"></path></g><path style="fill:#FFAE47;" d="M246.777,116.057c-0.027-2.044-0.888-3.989-2.383-5.384c-1.495-1.395-3.493-2.118-5.536-2.004 c-7.496,0.422-20.781,0.075-25.566-6.944c-0.996-1.463-2.139-3.248-3.463-5.314c-6.781-10.591-17.029-26.595-32.342-38.209 c-19.142-14.519-40.663-17.921-63.966-10.119C76.892,60.349,50.529,84.315,38.076,97.508 c-15.269,16.176-30.339,38.185-26.847,51.451c2.746,10.431,14.149,15.141,33.882,13.998c7.946-0.46,15.588-1.74,20.137-2.62 c3.175,3.027,8.557,7.462,15.758,10.866c10.358,4.896,26.424,8.559,45.643-0.364c5.955,3.654,17.814,9.71,31.014,9.709 c2.653-0.001,5.365-0.245,8.091-0.804c10.04-2.058,18.482-7.865,25.159-17.288c11.272,2.911,35.867,6.14,54.249-13.807 c1.3-1.411,2.01-3.267,1.983-5.185L246.777,116.057z"></path><path style="fill:#F4932A;" d="M247.146,143.463l-0.369-27.407c-0.027-2.044-0.888-3.989-2.383-5.384 c-1.495-1.395-3.493-2.118-5.536-2.004c-7.496,0.422-20.781,0.075-25.566-6.944c-0.996-1.463-2.139-3.248-3.463-5.314 c-6.781-10.591-17.029-26.595-32.342-38.209c-19.142-14.519-40.663-17.921-63.966-10.119c-1.343,0.45-2.668,0.92-3.985,1.4 c4.037,1.127,8.647,2.327,13.908,3.607c30.997,7.577,49.009,39.292,55.587,52.859c13.729,28.313,49.424,38.242,60.613,37.615 l7.496,0.004C247.142,143.533,247.146,143.499,247.146,143.463z"></path><path style="fill:#FFAE47;" d="M473.924,97.508c-12.454-13.193-38.817-37.159-75.447-49.425c-23.304-7.804-44.824-4.4-63.964,10.118 C319.2,69.815,308.952,85.819,302.17,96.409c-1.323,2.066-2.466,3.852-3.465,5.316c-3.819,5.605-13.087,6.93-20.19,7.054 c-4.052,0.071-7.314,3.348-7.368,7.399l-0.439,32.58c-0.032,2.405,1.09,4.68,3.02,6.117c17.297,12.883,37.464,10.116,47.355,7.573 c6.678,9.427,15.121,15.235,25.162,17.293c2.727,0.559,5.437,0.804,8.092,0.804c13.199,0,25.06-6.055,31.015-9.709 c19.217,8.923,35.284,5.26,45.642,0.364c7.2-3.403,12.583-7.838,15.758-10.866c4.55,0.88,12.191,2.16,20.137,2.62 c19.743,1.139,31.135-3.568,33.882-13.999C504.262,135.694,489.193,113.683,473.924,97.508z"></path><path style="fill:#F4932A;" d="M398.478,48.083c-23.304-7.804-44.824-4.4-63.964,10.118c-1.145,0.868-2.252,1.768-3.342,2.681 c11.556,0.298,29.869,1.718,36.886,4.069c57.298,19.187,99.098,73.003,97.654,90.412c0.122,2.781,0.432,5.3,0.907,7.578 c0.09,0.005,0.179,0.012,0.268,0.017c19.743,1.139,31.135-3.568,33.882-13.999c3.492-13.265-11.578-35.275-26.847-51.45 C461.47,84.315,435.108,60.349,398.478,48.083z"></path><path style="fill:#F2CA5A;" d="M282.974,91.557c-2.164-1.401-4.897-1.594-7.238-0.506c-5.283,2.454-10.927,3.7-16.773,3.7 s-11.489-1.245-16.773-3.7c-2.341-1.087-5.073-0.895-7.238,0.506c-2.164,1.402-3.458,3.819-3.423,6.398l2.516,185.87 c0.051,3.75,2.862,6.885,6.584,7.343c5.443,0.669,11.261,1.396,16.918,2.169c0.337,0.046,0.676,0.069,1.015,0.069 c0.34,0,0.679-0.023,1.016-0.069c5.511-0.753,11.068-1.451,17.717-2.266c3.724-0.457,6.536-3.594,6.587-7.344l2.514-185.771 C286.432,95.376,285.139,92.96,282.974,91.557z"></path><g><path style="fill:#FFAE47;" d="M278.193,444.521c2.21-1.341,3.575-3.727,3.609-6.312l0.545-40.452 c0.047-3.477-2.301-6.53-5.674-7.377c-5.409-1.358-11.191-2.557-16.634-3.651c-0.693-0.14-1.402-0.175-2.104-0.116 c0.018,14.714,0.05,42.137,0.067,68.456c0.006,0,0.011,0.001,0.017,0.001c1.244,0,2.506-0.311,3.669-0.963 C268.118,450.494,273.516,447.358,278.193,444.521z"></path><path style="fill:#FFAE47;" d="M264.395,369.801c4.817-0.997,9.004-1.922,12.707-2.808c3.34-0.798,5.71-3.762,5.756-7.194 l0.545-40.478c0.049-3.625-2.502-6.767-6.06-7.462c-5.197-1.017-10.972-1.978-17.651-2.939l0.234,62.219 c0.064,0.001,0.128,0.009,0.192,0.009C261.678,371.147,263.163,370.658,264.395,369.801z"></path><path style="fill:#FFAE47;" d="M259.578,293.337c5.511-0.753,11.068-1.451,17.717-2.266c3.724-0.457,6.536-3.594,6.587-7.344 l2.514-185.771c0.035-2.579-1.258-4.996-3.423-6.398c-2.164-1.401-4.897-1.594-7.238-0.506c-4.975,2.311-10.272,3.536-15.753,3.673 l-0.604,188.903l-0.026,9.728C259.428,293.345,259.504,293.347,259.578,293.337z"></path></g><path style="fill:#F2CA5A;" d="M258.963,0c-30.259,0-54.876,24.617-54.876,54.876s24.617,54.876,54.876,54.876 s54.876-24.617,54.876-54.876S289.222,0,258.963,0z"></path><g><path style="fill:#FFAE47;" d="M258.963,0c-6.22,0-12.194,1.055-17.773,2.97c21.56,7.403,37.104,27.867,37.104,51.906 S262.75,99.38,241.19,106.782c5.578,1.915,11.553,2.971,17.773,2.971c30.259,0,54.876-24.617,54.876-54.876S289.222,0,258.963,0z"></path><path style="fill:#FFAE47;" d="M410.388,246.792c-1.241-37.677-22.732-56.737-69.68-61.796c-13.845-1.49-27.626,1.5-38.804,8.426 c-12.158,7.534-14.254,15.627-13.872,21.089c0.75,10.715,10.842,19.997,31.757,29.214c17.898,7.885,32.301,7.486,40.901,7.246 c1.17-0.032,2.473-0.08,3.612-0.067c-0.153,0.824-0.482,1.661-1.146,2.612c-1.674,2.394-5.882,6.04-16.418,9.809 c-17.573,6.286-43.004,9.397-67.61,12.406c-24.676,3.019-47.984,5.87-66.912,11.96c-19.923,6.411-43.672,19.997-43.672,48.318 c0,21.558,11.821,39.297,33.285,49.947c15.116,7.501,33.159,11.086,50.609,14.553c13.901,2.761,27.034,5.371,35.474,9.352 c4.324,2.039,5.163,3.424,5.18,3.424l0,0c0.021,0.115,0.022,0.447,0.022,0.732c-0.121,0.38-1.158,2.895-8.585,8.399 c-6.26,4.64-15.853,10.554-30.189,18.612c-14.816,8.328-31.383,16.272-39.939,20.265c-9.462,4.416-13.821,15.363-9.926,24.921 c3.097,7.598,10.486,12.294,18.439,12.294c1.83,0,3.692-0.249,5.537-0.769c11.033-3.107,27.738-8.329,44.663-15.564 c43.696-18.676,65.903-41.511,66.005-67.869c0.044-11.319-3.961-32.23-31.267-45.109c-13.614-6.42-30.218-9.72-46.28-12.911 c-35.486-7.049-46.681-11.751-47.014-19.895c0.574-0.797,2.881-2.892,12-5.827c14.702-4.73,35.868-7.319,58.282-10.062 c27.138-3.32,55.199-6.752,77.665-14.789c14.256-5.101,25.047-11.601,32.989-19.87 C405.874,275.032,410.886,261.894,410.388,246.792z"></path></g></svg>