<!-- icon666.com - MILLIONS vector ICONS FREE --><svg version="1.1" id="Capa_1" xmlns="http://www.w3.org/2000/svg" xmlns:xlink="http://www.w3.org/1999/xlink" x="0px" y="0px" viewBox="0 0 512 512" style="enable-background:new 0 0 512 512;" xml:space="preserve"><path style="fill:#006EDB;" d="M355,512H157c-35.2,0-64-28.8-64-64V64c0-35.2,28.8-64,64-64h198c35.2,0,64,28.8,64,64v384 C419,483.2,390.2,512,355,512z"></path><g><path style="fill:#FFFFFF;" d="M398,437.336V60.416H118v376.92H398L398,437.336z"></path><circle style="fill:#FFFFFF;" cx="256" cy="30.176" r="12"></circle><path style="fill:#FFFFFF;" d="M283.128,488.272h-54.264c-7.496,0-13.568-6.064-13.568-13.568c0-7.496,6.064-13.568,13.568-13.568 h54.264c7.496,0,13.568,6.064,13.568,13.568S290.632,488.272,283.128,488.272z"></path></g><circle cx="181.344" cy="239.32" r="23.008"></circle><circle cx="256" cy="239.32" r="23.008"></circle><circle cx="330.64" cy="239.32" r="23.008"></circle></svg>